<svg xmlns="http://www.w3.org/2000/svg" viewBox="0 0 48 48">
  <title>Hadal Zone - Decentralized Library</title>
  <path fill="#222" d="M24 8c-5.5 0-10 4.5-10 10 0 2.2.7 4.2 1.9 5.9l-3.4 8.6c-.3.8.1 1.7.9 2 .8.3 1.7-.1 2-.9l3.1-7.8c1.5.8 3.2 1.2 5 1.2h1c1.8 0 3.5-.4 5-1.2l3.1 7.8c.2.6.8.9 1.4.9.2 0 .4 0 .6-.1.8-.3 1.2-1.2.9-2l-3.4-8.6c1.2-1.7 1.9-3.7 1.9-5.9 0-5.5-4.5-10-10-10zm-8 28c-.6 0-1.1.5-1.1 1.1v2.8c0 .6.5 1.1 1.1 1.1s1.1-.5 1.1-1.1v-2.8c0-.6-.5-1.1-1.1-1.1zm6 0c-.6 0-1.1.5-1.1 1.1v2.8c0 .6.5 1.1 1.1 1.1s1.1-.5 1.1-1.1v-2.8c0-.6-.5-1.1-1.1-1.1zm4 0c-.6 0-1.1.5-1.1 1.1v2.8c0 .6.5 1.1 1.1 1.1s1.1-.5 1.1-1.1v-2.8c0-.6-.5-1.1-1.1-1.1zm6 0c-.6 0-1.1.5-1.1 1.1v2.8c0 .6.5 1.1 1.1 1.1s1.1-.5 1.1-1.1v-2.8c0-.6-.5-1.1-1.1-1.1zM19 15c0-1.1.9-2 2-2s2 .9 2 2-.9 2-2 2-2-.9-2-2zm6 0c0-1.1.9-2 2-2s2 .9 2 2-.9 2-2 2-2-.9-2-2z"/>
</svg>
